<svg width="44" height="52" viewBox="0 0 44 52" fill="none" xmlns="http://www.w3.org/2000/svg">
<path d="M14.5926 26.3272H23.851M14.5926 33.7339H23.851M14.5926 41.1406H23.851M31.2577 42.9923H36.8127C39.8807 42.9923 42.3678 40.5052 42.3678 37.4372V11.7809C42.3678 8.97878 40.2816 6.60102 37.489 6.36924C36.5674 6.29275 35.6428 6.2268 34.7153 6.17152M20.3933 6.17152C20.2336 6.68956 20.1476 7.23994 20.1476 7.8104C20.1476 8.83306 20.9767 9.66208 21.9993 9.66208H33.1094C34.132 9.66208 34.9611 8.83306 34.9611 7.8104C34.9611 7.23994 34.8751 6.68956 34.7153 6.17152M20.3933 6.17152C21.0926 3.90353 23.2052 2.25537 25.7027 2.25537H29.406C31.9035 2.25537 34.0161 3.90353 34.7153 6.17152M20.3933 6.17152C19.4659 6.2268 18.5413 6.29275 17.6197 6.36924C14.8271 6.60102 12.7409 8.97878 12.7409 11.7809V17.0688M12.7409 17.0688H4.40838C2.8744 17.0688 1.63086 18.3123 1.63086 19.8463V47.6215C1.63086 49.1555 2.8744 50.399 4.40838 50.399H28.4802C30.0142 50.399 31.2577 49.1555 31.2577 47.6215V19.8463C31.2577 18.3123 30.0142 17.0688 28.4802 17.0688H12.7409ZM9.03757 26.3272H9.05609V26.3457H9.03757V26.3272ZM9.03757 33.7339H9.05609V33.7524H9.03757V33.7339ZM9.03757 41.1406H9.05609V41.1591H9.03757V41.1406Z" stroke="#8E8E8E" stroke-width="2.88963" stroke-linecap="round" stroke-linejoin="round"/>
</svg>
